<svg xmlns="http://www.w3.org/2000/svg" viewBox="0 0 746.73 498.08"><defs><style>.cls-1{fill:#1e1e1e;}.cls-2{fill:#fff;}.cls-3{fill:#474747;}</style></defs><g id="Calque_2" data-name="Calque 2"><g id="_ÎÓÈ_1" data-name="—ÎÓÈ_1"><circle class="cls-1" cx="623.37" cy="444.04" r="38.18"/><path class="cls-2" d="M585.5,448.94a87.68,87.68,0,0,0,42.77-42.77h0l-3.23-.28a83.54,83.54,0,0,1-39.82,39.83Z"/><path class="cls-2" d="M621.69,482.19a83.49,83.49,0,0,1,39.83-39.82l-.28-3.23h0a87.79,87.79,0,0,0-42.77,42.77Z"/><circle class="cls-1" cx="123.37" cy="444.04" r="38.18"/><path class="cls-2" d="M128.27,481.9A87.79,87.79,0,0,0,85.5,439.13h0l-.27,3.23a83.56,83.56,0,0,1,39.83,39.81Z"/><path class="cls-2" d="M161.51,445.72a83.56,83.56,0,0,1-39.81-39.83l-3.23.28h0a87.68,87.68,0,0,0,42.77,42.77Z"/><path class="cls-1" d="M710,39.75l-1.19-1.16-.35-.33-.34-.36c-.38-.4-.77-.79-1.16-1.18C680,9.71,644-3.11,605.6.64,565.89,4.51,526,25.42,490.36,61.1c-32.73,32.73-55.67,75.4-63,117.08A166.4,166.4,0,0,0,424.88,204,257.23,257.23,0,0,1,415,271.81c-2.69,9.19-5.64,18.55-8.69,26.92-8.35,23-31.58,50.12-40.82,62.24a8.39,8.39,0,0,0-1.58-.25h-.85a7.84,7.84,0,0,0-5.14,2.26l-4.66,4.67a7.8,7.8,0,0,0-2.26,5.13l-84,84a6.77,6.77,0,0,0-7.24,1.51l-9.09,9.09a6.76,6.76,0,0,0,0,9.56l19.13,19.13a6.76,6.76,0,0,0,9.56,0l9.09-9.08a6.76,6.76,0,0,0,1.51-7.25l84-84a7.8,7.8,0,0,0,5.13-2.26l4.67-4.66a7.84,7.84,0,0,0,2.26-5.13v-.86a8.52,8.52,0,0,0-.25-1.58C397.89,372,425,348.78,448,340.42c8.37-3,17.73-6,26.92-8.69a257.23,257.23,0,0,1,67.85-9.88,166.4,166.4,0,0,0,25.78-2.52c41.68-7.28,84.35-30.23,117.08-63,35.68-35.68,56.59-75.53,60.46-115.24C749.84,102.76,737,66.76,710,39.75ZM473.51,311c-10.85,3.1-22.25,6.64-32.44,10.34a151.22,151.22,0,0,0-15.79,6.91,5.08,5.08,0,0,1-6.81-6.81,151.22,151.22,0,0,0,6.91-15.79c3.7-10.19,7.24-21.59,10.34-32.44a4.14,4.14,0,0,1,7.44-1.12,100.65,100.65,0,0,0,12.77,15.67l1.53,1.47,0,0q.72.76,1.47,1.53a100.65,100.65,0,0,0,15.67,12.77A4.14,4.14,0,0,1,473.51,311Zm44.84-11.49v0l-.11,0c-17.4-3.43-32.88-11-44.92-23.05-.37-.36-.72-.74-1.07-1.11l-.41-.44-.44-.41c-.37-.35-.74-.7-1.11-1.07-12-12-19.62-27.52-23-44.92l0-.1-.05,0c-9.13-46.62,11.66-107.1,57.5-152.93,63.5-63.5,139-73.3,187.93-24.39l.84.87.65.67.68.66.86.83C744.58,103,734.78,178.53,671.28,242,625.45,287.86,565,308.66,518.35,299.52Z"/><path class="cls-3" d="M568.17,31.12,460.66,138.64c.39-.87.78-1.75,1.2-2.62L565.67,32.21C566.5,31.84,567.33,31.47,568.17,31.12Z"/><path class="cls-3" d="M602.74,21.31,448.38,175.66c.13-.6.26-1.2.4-1.81L601.09,21.54C601.63,21.45,602.18,21.37,602.74,21.31Z"/><path class="cls-3" d="M628.27,20.53,445.12,203.67c0-.48,0-1,0-1.45L627,20.42Z"/><path class="cls-3" d="M649,24.51,446.89,226.65c-.08-.4-.15-.8-.2-1.21L647.94,24.19C648.31,24.29,648.67,24.39,649,24.51Z"/><path class="cls-3" d="M666.59,31.7,452.35,245.94l-.4-1L665.66,31.22Z"/><path class="cls-3" d="M680.84,40.78l.81.61L460.93,262.12l-.57-.85Z"/><polygon class="cls-3" points="694.67 53.12 472.35 275.44 472.24 275.34 471.83 274.9 471.65 274.73 693.95 52.42 694.13 52.6 694.67 53.12"/><path class="cls-3" d="M706.25,66.29,485.89,286.65l-.85-.56L705.64,65.48C705.86,65.75,706.05,66,706.25,66.29Z"/><path class="cls-3" d="M715.74,81.55,502.31,295l-1-.38,214-214C715.42,80.92,715.58,81.24,715.74,81.55Z"/><path class="cls-3" d="M722.71,99.33,521.89,300.14c-.41-.05-.81-.12-1.21-.19L722.39,98.24C722.5,98.6,722.6,99,722.71,99.33Z"/><path class="cls-3" d="M726.35,120.43,545.24,301.55c-.49,0-1,0-1.46,0L726.25,119.12C726.29,119.55,726.33,120,726.35,120.43Z"/><path class="cls-3" d="M725.12,146.42,573.8,297.74l-1.83.41L725.31,144.81c-.07.53-.15,1-.24,1.56Z"/><path class="cls-3" d="M713.94,182.35,612.06,284.23c-.89.43-1.78.85-2.68,1.26l105.7-105.7C714.72,180.64,714.33,181.5,713.94,182.35Z"/><path class="cls-3" d="M720.38,92.18c.27.72.52,1.45.76,2.18L652.37,25.59c.73.24,1.46.49,2.18.76Z"/><path class="cls-3" d="M726.55,124.52,622.21,20.18c.5,0,1,0,1.47.06L726.5,123.05C726.52,123.54,726.54,124,726.55,124.52Z"/><path class="cls-3" d="M725.05,146.49c0,.37-.12.73-.19,1.09L599.15,21.87c.39-.08.8-.15,1.21-.21L725.12,146.42Z"/><path class="cls-3" d="M719.86,167.33,579.4,26.87c.35-.12.7-.25,1.07-.35L720.21,166.26C720.11,166.63,720,167,719.86,167.33Z"/><path class="cls-3" d="M712.73,184.94,561.79,34q.48-.24,1-.45L713.18,184C713,184.31,712.89,184.62,712.73,184.94Z"/><path class="cls-3" d="M704,201,545.75,42.71l.89-.53L704.55,200.09C704.38,200.39,704.19,200.69,704,201Z"/><path class="cls-3" d="M694.65,214.94l-.61.81L531,52.69l.81-.61Z"/><path class="cls-3" d="M683,229.47,517.26,63.72c.25-.22.5-.44.77-.65L683.66,228.7C683.45,229,683.23,229.22,683,229.47Z"/><rect class="cls-3" x="587.61" y="40.83" width="1" height="235.58" transform="translate(60.1 462.32) rotate(-45)"/><path class="cls-3" d="M658.93,253.47c-.25.22-.49.44-.76.66L492.61,88.56c.21-.27.43-.51.65-.76Z"/><path class="cls-3" d="M645.13,264.42l-.82.59L481.72,102.42l.59-.82Z"/><path class="cls-3" d="M630.29,274.33c-.29.19-.58.36-.88.53L471.87,117.32c.17-.3.34-.59.53-.88Z"/><path class="cls-3" d="M614.33,283.12l-1,.46L463.15,133.35c.15-.32.3-.64.46-.95Z"/><path class="cls-3" d="M597.11,290.65l-1,.38L455.7,150.65c.13-.34.26-.67.38-1Z"/><path class="cls-3" d="M578.34,296.63c-.37.11-.75.2-1.12.29L449.81,169.51c.09-.37.19-.75.29-1.12Z"/><path class="cls-3" d="M557.56,300.6l-1.27.14L446,190.44c0-.43.09-.85.14-1.27Z"/><path class="cls-3" d="M533.64,301.42l-1.51-.09L445.4,214.6c0-.5-.07-1-.09-1.51Z"/><path class="cls-3" d="M502.53,295.06l-.22-.09-1-.38-.33.32L452.6,246.54c-.09-.19-.16-.4-.25-.6l-.4-1c-.09-.24-.18-.49-.28-.73Z"/><path class="cls-1" d="M.64,141.13c3.87,39.71,24.78,79.56,60.46,115.24,32.73,32.73,75.4,55.68,117.08,63A166.4,166.4,0,0,0,204,321.85a257.23,257.23,0,0,1,67.85,9.88c9.19,2.69,18.55,5.65,26.92,8.69,23,8.36,50.12,31.58,62.24,40.82a8.52,8.52,0,0,0-.25,1.58v.86a7.84,7.84,0,0,0,2.26,5.13l4.67,4.66a7.8,7.8,0,0,0,5.13,2.26l84,84a6.78,6.78,0,0,0,1.51,7.25l9.09,9.08a6.76,6.76,0,0,0,9.56,0L496.1,477a6.76,6.76,0,0,0,0-9.56L487,458.32a6.78,6.78,0,0,0-7.25-1.51l-84-84a7.8,7.8,0,0,0-2.26-5.13L388.81,363a7.84,7.84,0,0,0-5.13-2.26h-.86a8.52,8.52,0,0,0-1.58.25c-9.24-12.12-32.47-39.26-40.82-62.24-3.05-8.37-6-17.73-8.69-26.92A257.23,257.23,0,0,1,321.85,204a166.4,166.4,0,0,0-2.52-25.78C312,136.5,289.1,93.83,256.37,61.1,220.69,25.42,180.84,4.51,141.13.64,102.76-3.11,66.76,9.71,39.75,36.72c-.39.39-.78.78-1.16,1.18l-.34.36-.35.33c-.4.38-.79.77-1.18,1.16C9.71,66.76-3.11,102.76.64,141.13ZM272.1,303.57a100.65,100.65,0,0,0,15.67-12.77q.75-.76,1.47-1.53l0,0,1.53-1.47a100.65,100.65,0,0,0,12.77-15.67,4.14,4.14,0,0,1,7.44,1.12c3.1,10.85,6.64,22.25,10.34,32.44a151.22,151.22,0,0,0,6.91,15.79,5.08,5.08,0,0,1-6.81,6.81,151.22,151.22,0,0,0-15.79-6.91c-10.19-3.7-21.59-7.24-32.44-10.34A4.14,4.14,0,0,1,272.1,303.57ZM75.45,242C12,178.53,2.15,103,51.06,54.09l.87-.83.67-.66.65-.67.84-.87C103,2.15,178.53,12,242,75.45c45.84,45.83,66.63,106.31,57.5,152.93l0,0,0,.1c-3.43,17.4-11,32.88-23.05,44.92-.36.37-.74.72-1.11,1.07l-.44.41-.41.44c-.35.37-.7.75-1.07,1.11-12,12-27.52,19.62-44.92,23.05l-.1,0,0,0C181.76,308.66,121.28,287.86,75.45,242Z"/><path class="cls-3" d="M178.56,31.12,286.07,138.64c-.39-.87-.78-1.75-1.2-2.62L181.06,32.21C180.23,31.84,179.4,31.47,178.56,31.12Z"/><path class="cls-3" d="M144,21.31,298.35,175.66c-.13-.6-.26-1.2-.4-1.81L145.64,21.54C145.1,21.45,144.55,21.37,144,21.31Z"/><path class="cls-3" d="M118.46,20.53,301.61,203.67c0-.48,0-1,0-1.45L119.77,20.42Z"/><path class="cls-3" d="M97.69,24.51,299.84,226.65c.08-.4.15-.8.2-1.21L98.79,24.19C98.42,24.29,98.06,24.39,97.69,24.51Z"/><path class="cls-3" d="M80.14,31.7,294.38,245.94l.4-1L81.07,31.22Z"/><path class="cls-3" d="M65.89,40.78l-.81.61L285.8,262.12c.19-.28.39-.57.57-.85Z"/><polygon class="cls-3" points="52.06 53.12 274.38 275.44 274.49 275.34 274.9 274.9 275.08 274.73 52.78 52.42 52.6 52.6 52.06 53.12"/><path class="cls-3" d="M40.48,66.29,260.84,286.65c.29-.18.58-.37.85-.56L41.09,65.48Z"/><path class="cls-3" d="M31,81.55,244.42,295l1-.38-214-214C31.31,80.92,31.15,81.24,31,81.55Z"/><path class="cls-3" d="M24,99.33,224.84,300.14c.41-.05.81-.12,1.21-.19L24.34,98.24C24.23,98.6,24.13,99,24,99.33Z"/><path class="cls-3" d="M20.38,120.43,201.5,301.55c.48,0,1,0,1.45,0L20.48,119.12C20.44,119.55,20.4,120,20.38,120.43Z"/><path class="cls-3" d="M21.61,146.42,172.93,297.74l1.83.41L21.42,144.81c.07.53.15,1,.24,1.56Z"/><path class="cls-3" d="M32.79,182.35,134.67,284.23c.89.43,1.79.85,2.68,1.26L31.65,179.79C32,180.64,32.4,181.5,32.79,182.35Z"/><path class="cls-3" d="M26.35,92.18c-.27.72-.52,1.45-.76,2.18L94.36,25.59c-.73.24-1.46.49-2.18.76Z"/><path class="cls-3" d="M20.18,124.52,124.52,20.18c-.5,0-1,0-1.47.06L20.24,123.05C20.21,123.54,20.19,124,20.18,124.52Z"/><path class="cls-3" d="M21.68,146.49c.05.37.12.73.19,1.09L147.58,21.87c-.39-.08-.8-.15-1.21-.21L21.61,146.42Z"/><path class="cls-3" d="M26.87,167.33,167.33,26.87c-.35-.12-.7-.25-1.07-.35L26.52,166.26C26.62,166.63,26.75,167,26.87,167.33Z"/><path class="cls-3" d="M34,184.94,184.94,34c-.32-.16-.63-.31-1-.45L33.55,184C33.69,184.31,33.84,184.62,34,184.94Z"/><path class="cls-3" d="M42.71,201,201,42.71l-.89-.53L42.18,200.09C42.35,200.39,42.54,200.69,42.71,201Z"/><path class="cls-3" d="M52.08,214.94l.61.81L215.75,52.69l-.81-.61Z"/><path class="cls-3" d="M63.72,229.47,229.47,63.72c-.25-.22-.5-.44-.77-.65L63.07,228.7C63.28,229,63.5,229.22,63.72,229.47Z"/><rect class="cls-3" x="40.83" y="158.12" width="235.58" height="1" transform="translate(-65.7 158.62) rotate(-45)"/><path class="cls-3" d="M87.8,253.47c.25.22.49.44.76.66L254.12,88.56c-.21-.27-.43-.51-.65-.76Z"/><path class="cls-3" d="M101.6,264.42l.82.59L265,102.42c-.19-.27-.38-.54-.59-.82Z"/><path class="cls-3" d="M116.44,274.33c.29.19.58.36.88.53L274.86,117.32c-.17-.3-.34-.59-.53-.88Z"/><path class="cls-3" d="M132.4,283.12l.95.46L283.58,133.35c-.15-.32-.3-.64-.46-.95Z"/><path class="cls-3" d="M149.62,290.65c.36.12.69.25,1,.38L291,150.65c-.13-.34-.26-.67-.38-1Z"/><path class="cls-3" d="M168.39,296.63c.37.11.75.2,1.12.29L296.92,169.51c-.09-.37-.18-.75-.29-1.12Z"/><path class="cls-3" d="M189.17,300.6l1.27.14,110.3-110.3c0-.43-.09-.85-.14-1.27Z"/><path class="cls-3" d="M213.09,301.42c.5,0,1-.05,1.51-.09l86.73-86.73c0-.5.07-1,.09-1.51Z"/><path class="cls-3" d="M244.2,295.06l.22-.09,1-.38.33.32,48.36-48.37c.09-.19.17-.4.25-.6l.4-1c.1-.24.18-.49.28-.73Z"/></g></g></svg>